<svg viewBox="0 0 1200 800" xmlns="http://www.w3.org/2000/svg">
  <defs>
    <linearGradient id="bg1" x1="0" y1="0" x2="1" y2="1">
      <stop offset="0%" stop-color="#0B2547"/>
      <stop offset="100%" stop-color="#123A6B"/>
    </linearGradient>
  </defs>
  <rect width="1200" height="800" fill="url(#bg1)"/>
  <g opacity="0.12" stroke="#D9A52B" stroke-width="2" fill="none">
    <circle cx="950" cy="220" r="160"/>
    <circle cx="950" cy="220" r="120"/>
    <circle cx="950" cy="220" r="80"/>
  </g>
  <g opacity="0.08" stroke="#FFFFFF" stroke-width="1.5" fill="none">
    <path d="M0 650 C 200 600, 400 700, 600 650 S 1000 600, 1200 660" />
    <path d="M0 700 C 200 650, 400 750, 600 700 S 1000 650, 1200 710" />
  </g>
  <!-- Mortarboard / graduation cap motif -->
  <g transform="translate(260,420)">
    <path d="M0 0 L220 -70 L440 0 L220 70 Z" fill="#D9A52B" opacity="0.92"/>
    <path d="M120 30 L120 110 C 120 140, 320 140, 320 110 L320 30" stroke="#D9A52B" stroke-width="8" fill="none" stroke-linecap="round"/>
    <line x1="440" y1="0" x2="440" y2="120" stroke="#D9A52B" stroke-width="6"/>
    <circle cx="440" cy="130" r="10" fill="#D9A52B"/>
  </g>
  <g transform="translate(700,540)" opacity="0.9">
    <rect x="0" y="0" width="180" height="130" rx="6" fill="none" stroke="#FFFFFF" stroke-width="3" opacity="0.5"/>
    <line x1="24" y1="34" x2="156" y2="34" stroke="#FFFFFF" stroke-width="3" opacity="0.5"/>
    <line x1="24" y1="60" x2="156" y2="60" stroke="#FFFFFF" stroke-width="3" opacity="0.5"/>
    <line x1="24" y1="86" x2="120" y2="86" stroke="#FFFFFF" stroke-width="3" opacity="0.5"/>
  </g>
</svg>
